<?xml version="1.0" encoding="UTF-8" standalone="no"?>
<!-- Created with Inkscape (http://www.inkscape.org/) -->

<svg
   width="28.073006"
   height="31.333179"
   viewBox="0 0 7.4276494 8.2902371"
   version="1.1"
   id="svg5"
   inkscape:version="1.1.1 (3bf5ae0d25, 2021-09-20)"
   sodipodi:docname="logo.svg"
   xmlns:inkscape="http://www.inkscape.org/namespaces/inkscape"
   xmlns:sodipodi="http://sodipodi.sourceforge.net/DTD/sodipodi-0.dtd"
   xmlns:xlink="http://www.w3.org/1999/xlink"
   xmlns="http://www.w3.org/2000/svg"
   xmlns:svg="http://www.w3.org/2000/svg">
  <sodipodi:namedview
     id="namedview7"
     pagecolor="#c4c4c4"
     bordercolor="#292929"
     borderopacity="1"
     inkscape:pageshadow="0"
     inkscape:pageopacity="0"
     inkscape:pagecheckerboard="false"
     inkscape:document-units="mm"
     showgrid="false"
     units="px"
     width="90px"
     inkscape:zoom="8.8"
     inkscape:cx="-4.6022727"
     inkscape:cy="13.352273"
     inkscape:window-width="1920"
     inkscape:window-height="1003"
     inkscape:window-x="0"
     inkscape:window-y="0"
     inkscape:window-maximized="1"
     inkscape:current-layer="layer1"
     showguides="false"
     showborder="true"
     fit-margin-top="1"
     fit-margin-left="1"
     fit-margin-bottom="1"
     fit-margin-right="1">
    <inkscape:grid
       type="xygrid"
       id="grid9"
       dotted="false"
       visible="true"
       originx="-1.2122192"
       originy="-0.57949536" />
  </sodipodi:namedview>
  <defs
     id="defs2">
    <linearGradient
       inkscape:collect="always"
       id="linearGradient7239">
      <stop
         style="stop-color:#ffe680;stop-opacity:1"
         offset="0"
         id="stop7235" />
      <stop
         style="stop-color:#d48800;stop-opacity:1"
         offset="1"
         id="stop7237" />
    </linearGradient>
    <linearGradient
       inkscape:collect="always"
       xlink:href="#linearGradient7239"
       id="linearGradient7241"
       x1="18.355774"
       y1="5.2610283"
       x2="5.4567275"
       y2="18.551472"
       gradientUnits="userSpaceOnUse"
       gradientTransform="matrix(0.38877249,0,0,-0.42042671,0.62118263,9.531471)" />
  </defs>
  <g
     inkscape:label="Layer 1"
     inkscape:groupmode="layer"
     id="layer1"
     transform="translate(-1.2122192,-0.57949536)">
    <g
       id="g20055"
       transform="rotate(-90,4.8269955,4.975167)">
      <path
         id="path19898"
         style="fill:#ab682d;fill-opacity:1;fill-rule:evenodd;stroke:#ab682d;stroke-width:0.213937;stroke-linecap:round;stroke-linejoin:round;stroke-miterlimit:4;stroke-dasharray:none;stroke-opacity:1"
         d="M 7.4124892,7.3195942 C 5.9856732,8.8171429 3.7064103,8.7803062 2.3216131,7.2373171 0.9368157,5.6943281 0.97087896,3.2294857 2.3976956,1.7319366 3.1671349,2.780398 3.4110021,2.0581011 3.926982,2.7262904 c 0.6380454,0.826263 1.8433262,0.4653711 2.0697562,-0.1489143 0.172158,-0.4670513 0.546013,0.048588 1.491834,-0.7631628 1.384797,1.5429892 1.350733,4.0078319 -0.07608,5.5053805 z m -0.05304,-3.6975709 c 0.308626,-0.325875 0.170936,-1.1270117 -0.206339,-0.8542985 -0.32182,0.2326281 -0.860436,0.2474986 -0.704981,0.5218088 0.120308,0.2122913 0.08373,0.4010537 0.294897,0.6045021 0.19878,0.1915179 0.476768,-0.1245524 0.616423,-0.2720124 z M 3.2047088,3.0693191 C 3.0039524,2.9485376 2.6377885,2.6213809 2.4494548,2.7495497 2.2511343,2.884515 2.0481532,3.398819 2.3891607,3.7768889 2.589433,3.9989278 2.861087,4.0286305 3.1085216,3.9162267 3.3643162,3.8000253 3.4524905,3.2183925 3.2047088,3.0693191 Z m 2.7455064,0.4023832 c -0.220467,-0.060712 -0.513393,0.3126672 -0.7604037,0.1966789 -0.152678,-0.071692 -0.21204,0.6426321 0.03434,0.8414086 0.3042167,0.2454342 0.5910777,0.046065 0.6741747,-0.013696 0.720512,-0.5181689 0.227901,-0.9759205 0.05188,-1.0243918 z M 3.8102868,3.3604007 C 3.6889272,3.2005806 3.5402479,3.9119973 3.7249189,4.2591811 3.7757871,4.354814 4.1757083,4.5639086 4.4041461,4.5078037 4.8519261,4.3978279 4.7163497,3.8497846 4.5940958,3.7482632 4.4250251,3.6078644 3.9606558,3.5584236 3.8102868,3.3604007 Z"
         sodipodi:nodetypes="sscsscssssssssssssssssssssss" />
      <path
         id="path36"
         style="fill:url(#linearGradient7241);fill-opacity:1;fill-rule:evenodd;stroke:#7e4722;stroke-width:0.213937;stroke-linecap:round;stroke-linejoin:round;stroke-miterlimit:4;stroke-dasharray:none;stroke-opacity:1"
         d="M 7.7574022,7.3195942 C 6.3305858,8.8171429 4.0513228,8.7803062 2.6665256,7.2373171 1.2817285,5.6943281 1.3157917,3.2294857 2.7426081,1.7319366 3.5120474,2.780398 3.7559146,2.0581011 4.2718945,2.7262904 4.9099399,3.5525534 6.1152207,3.1916615 6.3416506,2.5773761 6.513809,2.1103248 6.8876637,2.6259642 7.8334846,1.8142133 9.2182817,3.3572025 9.1842182,5.8220452 7.7574022,7.3195938 Z M 7.7043598,3.6220233 C 8.0129862,3.2961483 7.8752957,2.4950116 7.4980211,2.7677248 7.1762007,3.0003529 6.6375853,3.0152234 6.7930403,3.2895336 6.9133483,3.5018249 6.876774,3.6905873 7.0879368,3.8940357 7.2867166,4.0855536 7.564705,3.7694833 7.7043598,3.6220233 Z M 3.5496213,3.0693191 C 3.3488649,2.9485376 2.982701,2.6213809 2.7943673,2.7495497 2.5960468,2.884515 2.3930657,3.398819 2.7340732,3.7768889 2.9343455,3.9989278 3.2059995,4.0286305 3.4534341,3.9162267 3.7092287,3.8000253 3.797403,3.2183925 3.5496213,3.0693191 Z M 6.2951277,3.4717023 C 6.0746614,3.4109906 5.7817347,3.7843695 5.5347236,3.6683812 5.3820465,3.5966891 5.3226839,4.3110133 5.5690682,4.5097898 5.873285,4.755224 6.1601462,4.5558549 6.2432433,4.4960941 6.9637548,3.9779252 6.4711444,3.5201736 6.2951277,3.4717023 Z M 4.1551993,3.3604007 C 4.0338397,3.2005806 3.8851604,3.9119973 4.0698314,4.2591811 4.1206996,4.354814 4.5206208,4.5639086 4.7490586,4.5078037 5.1968386,4.3978279 5.0612622,3.8497846 4.9390083,3.7482632 4.7699376,3.6078644 4.3055683,3.5584236 4.1551993,3.3604007 Z"
         sodipodi:nodetypes="sscsscssssssssssssssssssssss" />
      <path
         id="path6007"
         style="fill:none;stroke:#ffeda9;stroke-width:0.427872;stroke-linecap:round;stroke-linejoin:round;stroke-miterlimit:4;stroke-dasharray:none;stroke-opacity:1"
         d="M 4.9937392,7.6612677 C 6.769679,7.7253206 8.1488579,6.341259 8.074221,4.5698795"
         sodipodi:nodetypes="cc" />
    </g>
  </g>
</svg>
